<mxfile host="app.diagrams.net" modified="2021-08-24T01:48:30.395Z" agent="5.0 (X11; Linux x86_64) AppleWebKit/537.36 (KHTML, like Gecko) Chrome/92.0.4515.134 Safari/537.36" etag="lwPFGw4BmqOWkSc0QVE9" version="14.9.8" type="github">
  <diagram id="gbemhICK7RKWESc6Yvt0" name="Page-1">
    <mxGraphModel dx="1004" dy="552" grid="1" gridSize="10" guides="1" tooltips="1" connect="1" arrows="1" fold="1" page="1" pageScale="1" pageWidth="827" pageHeight="1169" math="0" shadow="0">
      <root>
        <mxCell id="0" />
        <mxCell id="1" parent="0" />
        <mxCell id="EtwFDLTVwgX0dgTHdsAJ-21" style="edgeStyle=orthogonalEdgeStyle;rounded=0;orthogonalLoop=1;jettySize=auto;html=1;exitX=0.5;exitY=1;exitDx=0;exitDy=0;entryX=0.5;entryY=0;entryDx=0;entryDy=0;curved=1;fontSize=20;" parent="1" source="EtwFDLTVwgX0dgTHdsAJ-1" target="EtwFDLTVwgX0dgTHdsAJ-4" edge="1">
          <mxGeometry relative="1" as="geometry" />
        </mxCell>
        <mxCell id="EtwFDLTVwgX0dgTHdsAJ-1" value="read" style="ellipse;whiteSpace=wrap;html=1;fontSize=20;" parent="1" vertex="1">
          <mxGeometry x="110" y="90" width="200" height="70" as="geometry" />
        </mxCell>
        <mxCell id="EtwFDLTVwgX0dgTHdsAJ-29" style="edgeStyle=orthogonalEdgeStyle;curved=1;rounded=0;orthogonalLoop=1;jettySize=auto;html=1;exitX=0.5;exitY=1;exitDx=0;exitDy=0;fontSize=20;" parent="1" source="EtwFDLTVwgX0dgTHdsAJ-4" target="EtwFDLTVwgX0dgTHdsAJ-5" edge="1">
          <mxGeometry relative="1" as="geometry" />
        </mxCell>
        <mxCell id="EtwFDLTVwgX0dgTHdsAJ-4" value="Txn" style="rounded=1;whiteSpace=wrap;html=1;fontSize=20;" parent="1" vertex="1">
          <mxGeometry x="30" y="230" width="120" height="60" as="geometry" />
        </mxCell>
        <mxCell id="EtwFDLTVwgX0dgTHdsAJ-24" style="edgeStyle=orthogonalEdgeStyle;curved=1;rounded=0;orthogonalLoop=1;jettySize=auto;html=1;exitX=0.5;exitY=1;exitDx=0;exitDy=0;entryX=0.5;entryY=0;entryDx=0;entryDy=0;fontSize=20;" parent="1" source="EtwFDLTVwgX0dgTHdsAJ-5" target="EtwFDLTVwgX0dgTHdsAJ-6" edge="1">
          <mxGeometry relative="1" as="geometry" />
        </mxCell>
        <mxCell id="EtwFDLTVwgX0dgTHdsAJ-25" style="edgeStyle=orthogonalEdgeStyle;curved=1;rounded=0;orthogonalLoop=1;jettySize=auto;html=1;exitX=0.5;exitY=1;exitDx=0;exitDy=0;entryX=0.5;entryY=0;entryDx=0;entryDy=0;fontSize=20;" parent="1" source="EtwFDLTVwgX0dgTHdsAJ-5" target="EtwFDLTVwgX0dgTHdsAJ-9" edge="1">
          <mxGeometry relative="1" as="geometry" />
        </mxCell>
        <mxCell id="EtwFDLTVwgX0dgTHdsAJ-5" value="Index" style="rounded=1;whiteSpace=wrap;html=1;fontSize=20;" parent="1" vertex="1">
          <mxGeometry x="30" y="350" width="120" height="60" as="geometry" />
        </mxCell>
        <mxCell id="EtwFDLTVwgX0dgTHdsAJ-6" value="Cache" style="rounded=1;whiteSpace=wrap;html=1;fontSize=20;" parent="1" vertex="1">
          <mxGeometry x="30" y="470" width="120" height="60" as="geometry" />
        </mxCell>
        <mxCell id="EtwFDLTVwgX0dgTHdsAJ-7" value="Volatile redo log" style="rounded=1;whiteSpace=wrap;html=1;fontSize=20;" parent="1" vertex="1">
          <mxGeometry x="30" y="590" width="120" height="60" as="geometry" />
        </mxCell>
        <mxCell id="EtwFDLTVwgX0dgTHdsAJ-36" style="edgeStyle=orthogonalEdgeStyle;curved=1;rounded=0;orthogonalLoop=1;jettySize=auto;html=1;exitX=0.5;exitY=0;exitDx=0;exitDy=0;entryX=0;entryY=0.5;entryDx=0;entryDy=0;fontSize=20;" parent="1" source="EtwFDLTVwgX0dgTHdsAJ-8" target="EtwFDLTVwgX0dgTHdsAJ-34" edge="1">
          <mxGeometry relative="1" as="geometry" />
        </mxCell>
        <mxCell id="EtwFDLTVwgX0dgTHdsAJ-8" value="Meta Data" style="rounded=1;whiteSpace=wrap;html=1;fontSize=20;" parent="1" vertex="1">
          <mxGeometry x="210" y="270" width="120" height="60" as="geometry" />
        </mxCell>
        <mxCell id="EtwFDLTVwgX0dgTHdsAJ-9" value="NVM Tuple Heap" style="rounded=1;whiteSpace=wrap;html=1;fontSize=20;" parent="1" vertex="1">
          <mxGeometry x="210" y="380" width="120" height="60" as="geometry" />
        </mxCell>
        <mxCell id="EtwFDLTVwgX0dgTHdsAJ-26" style="edgeStyle=orthogonalEdgeStyle;curved=1;rounded=0;orthogonalLoop=1;jettySize=auto;html=1;exitX=0.5;exitY=1;exitDx=0;exitDy=0;entryX=1;entryY=0.5;entryDx=0;entryDy=0;fontSize=20;" parent="1" source="EtwFDLTVwgX0dgTHdsAJ-9" target="EtwFDLTVwgX0dgTHdsAJ-6" edge="1">
          <mxGeometry relative="1" as="geometry">
            <Array as="points">
              <mxPoint x="270" y="480" />
              <mxPoint x="150" y="480" />
            </Array>
          </mxGeometry>
        </mxCell>
        <mxCell id="de4A1w0ONzurPQHquJAN-4" style="edgeStyle=orthogonalEdgeStyle;rounded=0;orthogonalLoop=1;jettySize=auto;html=1;exitX=0.75;exitY=0;exitDx=0;exitDy=0;entryX=0.75;entryY=1;entryDx=0;entryDy=0;" parent="1" source="EtwFDLTVwgX0dgTHdsAJ-10" target="EtwFDLTVwgX0dgTHdsAJ-9" edge="1">
          <mxGeometry relative="1" as="geometry" />
        </mxCell>
        <mxCell id="EtwFDLTVwgX0dgTHdsAJ-10" value="Tuple Manager" style="rounded=1;whiteSpace=wrap;html=1;fontSize=20;" parent="1" vertex="1">
          <mxGeometry x="210" y="490" width="120" height="60" as="geometry" />
        </mxCell>
        <mxCell id="EtwFDLTVwgX0dgTHdsAJ-27" style="edgeStyle=orthogonalEdgeStyle;curved=1;rounded=0;orthogonalLoop=1;jettySize=auto;html=1;exitX=0.5;exitY=1;exitDx=0;exitDy=0;entryX=0.5;entryY=0;entryDx=0;entryDy=0;fontSize=20;" parent="1" source="EtwFDLTVwgX0dgTHdsAJ-12" target="EtwFDLTVwgX0dgTHdsAJ-13" edge="1">
          <mxGeometry relative="1" as="geometry" />
        </mxCell>
        <mxCell id="EtwFDLTVwgX0dgTHdsAJ-12" value="write" style="ellipse;whiteSpace=wrap;html=1;fontSize=20;" parent="1" vertex="1">
          <mxGeometry x="577" y="90" width="200" height="70" as="geometry" />
        </mxCell>
        <mxCell id="EtwFDLTVwgX0dgTHdsAJ-28" style="edgeStyle=orthogonalEdgeStyle;curved=1;rounded=0;orthogonalLoop=1;jettySize=auto;html=1;exitX=1;exitY=0.5;exitDx=0;exitDy=0;entryX=1;entryY=0.5;entryDx=0;entryDy=0;fontSize=20;" parent="1" source="EtwFDLTVwgX0dgTHdsAJ-13" target="EtwFDLTVwgX0dgTHdsAJ-15" edge="1">
          <mxGeometry relative="1" as="geometry" />
        </mxCell>
        <mxCell id="oxSXc0uir3fitEyzG0Ok-8" style="edgeStyle=orthogonalEdgeStyle;curved=1;rounded=0;orthogonalLoop=1;jettySize=auto;html=1;exitX=0;exitY=0.5;exitDx=0;exitDy=0;entryX=0;entryY=0.5;entryDx=0;entryDy=0;" edge="1" parent="1" source="EtwFDLTVwgX0dgTHdsAJ-13" target="oxSXc0uir3fitEyzG0Ok-2">
          <mxGeometry relative="1" as="geometry">
            <Array as="points">
              <mxPoint x="490" y="260" />
              <mxPoint x="490" y="620" />
            </Array>
          </mxGeometry>
        </mxCell>
        <mxCell id="EtwFDLTVwgX0dgTHdsAJ-13" value="Txn" style="rounded=1;whiteSpace=wrap;html=1;fontSize=20;" parent="1" vertex="1">
          <mxGeometry x="527" y="230" width="120" height="60" as="geometry" />
        </mxCell>
        <mxCell id="EtwFDLTVwgX0dgTHdsAJ-14" value="Index" style="rounded=1;whiteSpace=wrap;html=1;fontSize=20;" parent="1" vertex="1">
          <mxGeometry x="527" y="350" width="120" height="60" as="geometry" />
        </mxCell>
        <mxCell id="EtwFDLTVwgX0dgTHdsAJ-30" style="edgeStyle=orthogonalEdgeStyle;curved=1;rounded=0;orthogonalLoop=1;jettySize=auto;html=1;exitX=0;exitY=0.5;exitDx=0;exitDy=0;entryX=0;entryY=0.5;entryDx=0;entryDy=0;fontSize=20;" parent="1" source="EtwFDLTVwgX0dgTHdsAJ-15" target="EtwFDLTVwgX0dgTHdsAJ-14" edge="1">
          <mxGeometry relative="1" as="geometry" />
        </mxCell>
        <mxCell id="EtwFDLTVwgX0dgTHdsAJ-15" value="Cache" style="rounded=1;whiteSpace=wrap;html=1;fontSize=20;" parent="1" vertex="1">
          <mxGeometry x="527" y="470" width="120" height="60" as="geometry" />
        </mxCell>
        <mxCell id="EtwFDLTVwgX0dgTHdsAJ-17" value="Meta Data" style="rounded=1;whiteSpace=wrap;html=1;fontSize=20;" parent="1" vertex="1">
          <mxGeometry x="707" y="270" width="120" height="60" as="geometry" />
        </mxCell>
        <mxCell id="EtwFDLTVwgX0dgTHdsAJ-18" value="NVM Tuple Heap" style="rounded=1;whiteSpace=wrap;html=1;fontSize=20;" parent="1" vertex="1">
          <mxGeometry x="707" y="380" width="120" height="60" as="geometry" />
        </mxCell>
        <mxCell id="de4A1w0ONzurPQHquJAN-5" style="edgeStyle=orthogonalEdgeStyle;rounded=0;orthogonalLoop=1;jettySize=auto;html=1;exitX=0.75;exitY=0;exitDx=0;exitDy=0;entryX=0.75;entryY=1;entryDx=0;entryDy=0;" parent="1" source="EtwFDLTVwgX0dgTHdsAJ-19" target="EtwFDLTVwgX0dgTHdsAJ-18" edge="1">
          <mxGeometry relative="1" as="geometry" />
        </mxCell>
        <mxCell id="EtwFDLTVwgX0dgTHdsAJ-19" value="Tuple Manager" style="rounded=1;whiteSpace=wrap;html=1;fontSize=20;" parent="1" vertex="1">
          <mxGeometry x="707" y="490" width="120" height="60" as="geometry" />
        </mxCell>
        <mxCell id="EtwFDLTVwgX0dgTHdsAJ-34" value="&amp;nbsp;Map address &lt;br&gt;Pages of table&lt;br&gt;Table schema&lt;br&gt;NVM page manager" style="rounded=0;whiteSpace=wrap;html=1;shadow=0;labelBackgroundColor=none;fontSize=20;fillColor=none;" parent="1" vertex="1">
          <mxGeometry x="340" y="100" width="190" height="110" as="geometry" />
        </mxCell>
        <mxCell id="oxSXc0uir3fitEyzG0Ok-1" value="Persistent redo log" style="rounded=1;whiteSpace=wrap;html=1;fontSize=20;" vertex="1" parent="1">
          <mxGeometry x="210" y="590" width="120" height="60" as="geometry" />
        </mxCell>
        <mxCell id="oxSXc0uir3fitEyzG0Ok-6" style="edgeStyle=orthogonalEdgeStyle;curved=1;rounded=0;orthogonalLoop=1;jettySize=auto;html=1;exitX=1;exitY=0.5;exitDx=0;exitDy=0;entryX=0;entryY=0.5;entryDx=0;entryDy=0;" edge="1" parent="1" source="oxSXc0uir3fitEyzG0Ok-2" target="oxSXc0uir3fitEyzG0Ok-3">
          <mxGeometry relative="1" as="geometry" />
        </mxCell>
        <mxCell id="oxSXc0uir3fitEyzG0Ok-2" value="Volatile redo log" style="rounded=1;whiteSpace=wrap;html=1;fontSize=20;" vertex="1" parent="1">
          <mxGeometry x="520" y="590" width="120" height="60" as="geometry" />
        </mxCell>
        <mxCell id="oxSXc0uir3fitEyzG0Ok-7" style="edgeStyle=orthogonalEdgeStyle;curved=1;rounded=0;orthogonalLoop=1;jettySize=auto;html=1;exitX=0.5;exitY=0;exitDx=0;exitDy=0;entryX=0.5;entryY=1;entryDx=0;entryDy=0;" edge="1" parent="1" source="oxSXc0uir3fitEyzG0Ok-3" target="EtwFDLTVwgX0dgTHdsAJ-18">
          <mxGeometry relative="1" as="geometry" />
        </mxCell>
        <mxCell id="oxSXc0uir3fitEyzG0Ok-3" value="Persistent redo log" style="rounded=1;whiteSpace=wrap;html=1;fontSize=20;" vertex="1" parent="1">
          <mxGeometry x="707" y="590" width="120" height="60" as="geometry" />
        </mxCell>
      </root>
    </mxGraphModel>
  </diagram>
</mxfile>
